<svg width="100" height="24" viewBox="0 0 100 24" fill="none" xmlns="http://www.w3.org/2000/svg">
<rect width="100" height="24" rx="12" fill="white"/>
<rect x="2" y="2" width="96" height="20" rx="10" fill="#313131"/>
<circle cx="88" cy="12" r="12" fill="white"/>
<circle cx="88" cy="12" r="10" fill="#F37021"/>
<path d="M64.6919 15.7639C65.1995 16.1479 65.8607 16.3398 66.6753 16.3398C67.4899 16.3398 68.2632 16.1648 68.9952 15.8147C69.2431 15.7018 69.4202 15.7808 69.5265 16.0519L69.8275 16.848C69.8866 17.0626 69.798 17.2263 69.5619 17.3392C68.641 17.7796 67.6139 17.9998 66.4805 17.9998C64.9103 17.9998 63.6824 17.5933 62.797 16.7802C61.9233 15.9559 61.4865 14.8097 61.4865 13.3416C61.4865 11.8623 61.8879 10.7161 62.6907 9.90304C63.5053 9.07868 64.6092 8.6665 66.0023 8.6665C67.36 8.6665 68.4108 9.0561 69.1546 9.83529C69.8984 10.6032 70.2703 11.6308 70.2703 12.9182V13.7482C70.2703 14.0192 70.1286 14.1547 69.8452 14.1547H63.8064C63.9008 14.8323 64.196 15.3687 64.6919 15.7639ZM66.0378 10.3265C64.6328 10.3265 63.8713 11.1283 63.7533 12.7318H68.1452V12.6302C68.1452 11.9075 67.9622 11.3429 67.5962 10.9363C67.242 10.5298 66.7225 10.3265 66.0378 10.3265Z" fill="white"/>
<path d="M18.5292 7.36734H20.0007C20.2893 7.36734 20.4682 7.49929 20.5374 7.76318L22.8919 15.0672H22.9438L23.6709 11.8285L25.2117 5.72909C25.281 5.4652 25.4483 5.33325 25.7138 5.33325H27.3585C27.6586 5.33325 27.7624 5.50118 27.6701 5.83704L24.5019 17.5681C24.4211 17.856 24.2365 17.9999 23.9479 17.9999H22.1301C21.8531 17.9999 21.6742 17.856 21.5935 17.5681L19.2909 10.7575H19.239L16.9364 17.5681C16.8672 17.856 16.6883 17.9999 16.3997 17.9999H14.5819C14.3049 17.9999 14.1203 17.856 14.0279 17.5681L10.8425 5.83704C10.7501 5.50118 10.8598 5.33325 11.1714 5.33325H12.8161C13.0815 5.33325 13.2489 5.4652 13.3181 5.72909L14.8589 11.8285L15.5861 15.0492H15.6207L17.9925 7.76318C18.0617 7.49929 18.2406 7.36734 18.5292 7.36734Z" fill="white"/>
<path d="M31.7567 9.08159V17.5849C31.7567 17.8616 31.601 17.9999 31.2894 17.9999H29.5214C29.2098 17.9999 29.054 17.8616 29.054 17.5849V9.08159C29.054 8.80492 29.2098 8.66658 29.5214 8.66658H31.2894C31.601 8.66658 31.7567 8.80492 31.7567 9.08159ZM31.7567 5.74826V6.91825C31.7567 7.19492 31.6077 7.33325 31.3097 7.33325H29.5011C29.2031 7.33325 29.054 7.19492 29.054 6.91825V5.74826C29.054 5.47159 29.2031 5.33325 29.5011 5.33325H31.3097C31.6077 5.33325 31.7567 5.47159 31.7567 5.74826Z" fill="white"/>
<path d="M50 9.08159V17.5849C50 17.8616 49.8442 17.9999 49.5326 17.9999H47.7647C47.4531 17.9999 47.2973 17.8616 47.2973 17.5849V9.08159C47.2973 8.80492 47.4531 8.66658 47.7647 8.66658H49.5326C49.8442 8.66658 50 8.80492 50 9.08159ZM50 5.74826V6.91825C50 7.19492 49.851 7.33325 49.5529 7.33325H47.7444C47.4463 7.33325 47.2973 7.19492 47.2973 6.91825V5.74826C47.2973 5.47159 47.4463 5.33325 47.7444 5.33325H49.5529C49.851 5.33325 50 5.47159 50 5.74826Z" fill="white"/>
<path d="M41.8919 12.0431V17.6016C41.8919 17.8671 41.7513 17.9998 41.4701 17.9998H39.8931C39.5997 17.9998 39.453 17.8671 39.453 17.6016V12.4587C39.453 11.8469 39.3124 11.3909 39.0312 11.0907C38.7622 10.7906 38.3099 10.6405 37.6742 10.6405C36.9896 10.6405 36.4578 10.831 36.0788 11.212C35.7121 11.5814 35.5287 12.0893 35.5287 12.7358V17.6016C35.5287 17.8671 35.3881 17.9998 35.1069 17.9998H33.5299C33.2487 17.9998 33.1081 17.8671 33.1081 17.6016V9.06477C33.1081 8.79926 33.2487 8.6665 33.5299 8.6665H34.9786C35.2353 8.6665 35.3759 8.78194 35.4003 9.01282L35.492 9.91326C36.1033 8.94356 37.1302 8.6665 38.5728 8.6665C39.6852 8.6665 40.5166 8.96088 41.0667 9.54962C41.6168 10.1384 41.8919 10.9695 41.8919 12.0431Z" fill="white"/>
<path d="M60.1351 12.0431V17.6016C60.1351 17.8671 59.9945 17.9998 59.7134 17.9998H58.1363C57.8429 17.9998 57.6962 17.8671 57.6962 17.6016V12.4587C57.6962 11.8469 57.5556 11.3909 57.2744 11.0907C57.0055 10.7906 56.5532 10.6405 55.9175 10.6405C55.2328 10.6405 54.701 10.831 54.3221 11.212C53.9553 11.5814 53.7719 12.0893 53.7719 12.7358V17.6016C53.7719 17.8671 53.6313 17.9998 53.3502 17.9998H51.7731C51.4919 17.9998 51.3513 17.8671 51.3513 17.6016V9.06477C51.3513 8.79926 51.4919 8.6665 51.7731 8.6665H53.2218C53.4785 8.6665 53.6191 8.78194 53.6436 9.01282L53.7353 9.91326C54.3465 8.94356 55.3734 8.6665 56.816 8.6665C57.9285 8.6665 58.7598 8.96088 59.3099 9.54962C59.8601 10.1384 60.1351 10.9695 60.1351 12.0431Z" fill="white"/>
<path d="M45.9459 5.72909V17.5861C45.9459 17.862 45.789 17.9999 45.475 17.9999H43.6937C43.3934 17.9999 43.2432 17.862 43.2432 17.5861V5.72909C43.2432 5.4652 43.3934 5.33325 43.6937 5.33325H45.475C45.789 5.33325 45.9459 5.4652 45.9459 5.72909Z" fill="white"/>
</svg>
